<svg xmlns="http://www.w3.org/2000/svg" width="320" height="320" id="svg-0">
  <defs>
    <clipPath id="clip-to-bounding-box">
      <rect x="10" y="10" width="300" height="300"/>
    </clipPath>
  </defs>
  <g id="g-0" stroke-width="1" fill="None" stroke="#ccc">
    <line id="line-0" x1="10.0" y1="310.0" x2="10.0" y2="10.0" type="vertical grid line"/>
    <line id="line-1" x1="47.5" y1="310.0" x2="47.5" y2="10.0" type="vertical grid line"/>
    <line id="line-2" x1="85.0" y1="310.0" x2="85.0" y2="10.0" type="vertical grid line"/>
    <line id="line-3" x1="122.5" y1="310.0" x2="122.5" y2="10.0" type="vertical grid line"/>
    <line id="line-4" x1="160.0" y1="310.0" x2="160.0" y2="10.0" type="vertical grid line"/>
    <line id="line-5" x1="197.5" y1="310.0" x2="197.5" y2="10.0" type="vertical grid line"/>
    <line id="line-6" x1="235.0" y1="310.0" x2="235.0" y2="10.0" type="vertical grid line"/>
    <line id="line-7" x1="272.5" y1="310.0" x2="272.5" y2="10.0" type="vertical grid line"/>
    <line id="line-8" x1="310.0" y1="310.0" x2="310.0" y2="10.0" type="vertical grid line"/>
    <line id="line-9" x1="10.0" y1="310.0" x2="310.0" y2="310.0" type="horizontal grid line"/>
    <line id="line-10" x1="10.0" y1="272.5" x2="310.0" y2="272.5" type="horizontal grid line"/>
    <line id="line-11" x1="10.0" y1="235.0" x2="310.0" y2="235.0" type="horizontal grid line"/>
    <line id="line-12" x1="10.0" y1="197.5" x2="310.0" y2="197.5" type="horizontal grid line"/>
    <line id="line-13" x1="10.0" y1="160.0" x2="310.0" y2="160.0" type="horizontal grid line"/>
    <line id="line-14" x1="10.0" y1="122.5" x2="310.0" y2="122.5" type="horizontal grid line"/>
    <line id="line-15" x1="10.0" y1="85.0" x2="310.0" y2="85.0" type="horizontal grid line"/>
    <line id="line-16" x1="10.0" y1="47.5" x2="310.0" y2="47.5" type="horizontal grid line"/>
    <line id="line-17" x1="10.0" y1="10.0" x2="310.0" y2="10.0" type="horizontal grid line"/>
  </g>
  <g id="g-1" stroke-width="1" fill="None" stroke="#000">
    <line id="line-18" x1="10.0" y1="160.0" x2="310.0" y2="160.0" type="horizontal axis"/>
    <line id="line-19" x1="160.0" y1="310.0" x2="160.0" y2="10.0" type="vertical axis"/>
    <g id="g-2" type="horizontal ticks">
      <line id="line-20" x1="10.0" y1="163.0" x2="10.0" y2="157.0" type="tick on horizontal axis"/>
      <line id="line-21" x1="47.5" y1="163.0" x2="47.5" y2="157.0" type="tick on horizontal axis"/>
      <line id="line-22" x1="85.0" y1="163.0" x2="85.0" y2="157.0" type="tick on horizontal axis"/>
      <line id="line-23" x1="122.5" y1="163.0" x2="122.5" y2="157.0" type="tick on horizontal axis"/>
      <line id="line-24" x1="160.0" y1="163.0" x2="160.0" y2="157.0" type="tick on horizontal axis"/>
      <line id="line-25" x1="197.5" y1="163.0" x2="197.5" y2="157.0" type="tick on horizontal axis"/>
      <line id="line-26" x1="235.0" y1="163.0" x2="235.0" y2="157.0" type="tick on horizontal axis"/>
      <line id="line-27" x1="272.5" y1="163.0" x2="272.5" y2="157.0" type="tick on horizontal axis"/>
      <line id="line-28" x1="310.0" y1="163.0" x2="310.0" y2="157.0" type="tick on horizontal axis"/>
    </g>
    <g id="g-3" type="vertical ticks">
      <line id="line-29" x1="157.0" y1="310.0" x2="163.0" y2="310.0" type="tick on vertical axis"/>
      <line id="line-30" x1="157.0" y1="272.5" x2="163.0" y2="272.5" type="tick on vertical axis"/>
      <line id="line-31" x1="157.0" y1="235.0" x2="163.0" y2="235.0" type="tick on vertical axis"/>
      <line id="line-32" x1="157.0" y1="197.5" x2="163.0" y2="197.5" type="tick on vertical axis"/>
      <line id="line-33" x1="157.0" y1="160.0" x2="163.0" y2="160.0" type="tick on vertical axis"/>
      <line id="line-34" x1="157.0" y1="122.5" x2="163.0" y2="122.5" type="tick on vertical axis"/>
      <line id="line-35" x1="157.0" y1="85.0" x2="163.0" y2="85.0" type="tick on vertical axis"/>
      <line id="line-36" x1="157.0" y1="47.5" x2="163.0" y2="47.5" type="tick on vertical axis"/>
      <line id="line-37" x1="157.0" y1="10.0" x2="163.0" y2="10.0" type="tick on vertical axis"/>
    </g>
  </g>
  <path id="square" d="M 85.0 235.0 L 235.0 235.0 L 235.0 85.0 L 85.0 85.0 Z" stroke="#000" stroke-width="2" fill="#f00" type="polygon"/>
  <path id="polygon" d="M 235.0 160.0 L 224.9519052838329 122.5 L 197.5 95.0480947161671 L 160.0 85.0 L 122.50000000000001 95.0480947161671 L 95.0480947161671 122.5 L 85.0 160.0 L 95.04809471616709 197.49999999999997 L 122.49999999999997 224.95190528383287 L 160.0 235.0 L 197.5 224.9519052838329 L 224.95190528383287 197.50000000000003 L 235.0 160.00000000000003 Z" stroke="#000" stroke-width="2" fill="#f0f" type="polygon"/>
  <path id="path-0" d="M 291.25 160.0 L 290.63626116208195 152.98104237878132 L 288.832068636944 146.2561075660579 L 285.946168712332 140.10080831678934 L 282.15219907142546 134.75509402195172 L 277.677781873461 130.40823820185486 L 272.7902261390534 127.18701006598567 L 267.7797378098538 125.14777333556577 L 262.9411924535867 124.27300876070063 L 258.55561589918955 124.47247880705993 L 254.87253643802288 125.5889613025182 L 252.09431746282584 127.40819174971352 L 250.36345497732452 129.67238956462313 L 249.7536381150901 132.0965183101133 L 250.26513436195285 134.38625820658464 L 251.8247894386745 136.25656161330227 L 254.29064184392865 137.44962554395542 L 257.46086210099264 137.75115191003366 L 261.0864550139459 137.00387377413665 L 264.8869267948809 135.11749768216853 L 268.5679326293228 132.07443733450665 L 271.8397958082834 127.93097830209217 L 274.4357347910854 122.81380057785864 L 276.12865291433405 116.91207743842281 L 276.7454357760965 110.46564704789816 L 276.1778579257494 103.7500000000001 L 274.3894135392188 97.05902606118191 L 271.4176418697992 90.6866041754558 L 267.3718013440377 84.90819247396094 L 262.42603843339793 79.96357503233868 L 256.8084805117119 76.04184943656267 L 250.78693801889676 73.26959841995274 L 244.65211430067467 71.70298876752717 L 238.6993780954312 71.32429391953454 L 233.21024395303468 72.04305874906709 L 228.4347242216766 73.70183330414457 L 224.57566147450407 76.0861152201848 L 221.77602580904392 78.93787606291568 L 220.10997515810715 81.97182167064034 L 219.57824030657275 84.89336477792895 L 220.10812457084128 87.41718061427703 L 221.55811814109893 89.28517954122346 L 223.72683712988248 90.28276742146159 L 226.3657256328276 90.25237200200593 L 229.19472266319184 89.103385380308 L 231.91990952743353 86.81789781335252 L 234.25202877035477 83.45186257562102 L 235.92471105402768 79.13161865627664 L 236.71126468595955 74.04598977043042 L 236.43897282563898 68.43445611628393 L 234.99999999999997 62.57214207425058 L 232.35822260760472 56.75256311072421 L 228.55155420180682 51.26921594708111 L 223.68961942245568 46.397168736903055 L 217.94692270692676 42.37580799440997 L 211.55194099055763 39.39382633467322 L 204.77282571703606 37.57739428826358 L 197.90061252854375 36.98225938640883 L 191.23099360685893 37.59026894842435 L 185.0457979503025 39.31053504623742 L 179.5953432226512 41.985168436311426 L 175.0827680458482 45.39922116480486 L 171.65132916957083 49.29421310593287 L 169.37546165639964 53.384392502359844 L 168.25616377704404 57.37470878960731 L 168.2209965724677 60.97936839793087 L 169.12869808310612 63.93980759506866 L 170.77812228871647 66.04095306330613 L 172.92094106478905 67.12474849282675 L 175.27731101715898 67.1000972601513 L 177.55352076214135 65.94859645160332 L 179.46050978074177 63.72570193759343 L 180.73209521119924 60.55725128798221 L 181.1417612953574 56.63156300328538 L 180.51695650803944 52.1876084934207 L 178.7499999999999 47.499999999999744 L 175.804912034284 42.86173772473863 L 171.71973920628724 38.56580022447106 L 166.60422831710343 34.88673481565637 L 160.63299503097033 32.06340473126784 L 154.03461652691888 30.283977090535046 L 147.07733346518998 29.674094944091138 L 140.05225963824597 30.288976590500965 L 133.25515427759296 32.109938595830485 L 126.9679023013177 35.04556099097668 L 121.44086613847148 38.93742143696329 L 116.87721800214626 43.570038063932074 L 113.42023704430719 48.68439624369867 L 111.14436953113604 53.99420936459451 L 110.0506137333422 59.20389189048052 L 110.06651948828818 64.0271153972794 L 111.05080243412156 68.20478165032972 L 112.80228295945079 71.52128341590027 L 115.07258817449159 73.81803128873477 L 117.58181876531322 75.00339660432384 L 120.03619629850294 75.0584456957415 L 122.14658210478567 74.03810520073547 L 123.6467041058472 72.0676852092288 L 124.309946299838 69.33497872589531 L 123.9636459347188 66.07843387940612 L 122.49999999999986 62.572142074250365 L 119.88289571668446 59.10858534760173 L 116.150235815685 55.980226991615964 L 111.41161247427485 53.46110218395076 L 105.84147604135713 51.7895653692954 L 99.66822776162653 51.15327845228428 L 93.15992181915695 51.67738306424792 L 86.60747507020722 53.41660009968032 L 80.30643943642676 56.351752953986164 L 74.53848224332475 60.39093293713172 L 69.55373814009782 65.37523365330973 L 65.55514147261749 71.08869405225403 L 62.68572354259973 77.27182541197952 L 61.01967289166308 83.63787232157769 L 60.55772030468647 89.89078594586077 L 61.22713848926301 95.74378026511285 L 62.8863564313897 100.93730535315967 L 65.33389847087886 105.25530838701064 L 68.32108640236098 108.53876066985325 L 71.56770646345286 110.69560073601309 L 74.77965677734903 111.70646879763095 L 77.66746637831476 111.62587223866416 L 79.96452218426545 110.57870894628658 L 81.44385863184584 108.75236695426982 L 81.93245500310485 106.38489682986358 L 81.32214207425052 103.74999999999972 L 79.57643276622694 101.13977627921577 L 76.73284758731043 98.84631465960817 L 72.90058873721703 97.14328410553257 L 68.25370900342841 96.2686810957665 L 63.020204659737075 96.40981797343844 L 57.467717687467726 97.69149536610854 L 51.8867456890887 100.16810187181119 L 46.5724144653165 103.82013744255843 L 41.80595854049494 108.55537893986394 L 37.837073272264504 114.21461465233534 L 34.86824741723741 120.58158748091009 L 33.04206058561685 127.39652205145276 L 32.432243723382555 134.37238582328538 L 33.039064316364886 141.21286247538973 L 34.78932627291691 147.63090826348676 L 37.540984485235015 153.36672541115271 L 41.092084112723555 158.2040232281769 L 45.193462893182115 161.98354523789203 L 49.56441834329651 164.61301238204615 L 53.91035541560008 166.07285756292325 L 57.94130574028743 166.4173912282773 L 61.3901548159713 165.77132478911506 L 64.0294318647012 164.32187034487194 L 65.68560738024188 162.30691314746306 L 66.25 159.9999999999997 L 65.68560738024155 157.69308685253625 L 64.02943186470054 155.67812965512752 L 61.39015481597046 154.2286752108847 L 57.94130574028641 153.5826087717227 L 53.91035541559896 153.92714243707704 L 49.56441834329517 155.38698761795445 L 45.19346289318082 158.01645476210888 L 41.09208411272252 161.7959767718243 L 37.54098448523405 166.63327458884885 L 34.78932627291623 172.36909173651503 L 33.03906431636457 178.78713752461212 L 32.43224372338253 185.62761417671652 L 33.04206058561719 192.60347794854914 L 34.86824741723812 199.41841251909187 L 37.83707327226553 205.78538534766645 L 41.80595854049615 211.4446210601375 L 46.572414465317976 216.1798625574428 L 51.88674568909033 219.8318981281897 L 57.467717687469275 222.308504633892 L 63.02020465973857 223.5901820265618 L 68.2537090034298 223.73131890423343 L 72.90058873721827 222.85671589446702 L 76.73284758731138 221.15368534039123 L 79.57643276622757 218.86022372078358 L 81.32214207425085 216.24999999999946 L 81.93245500310483 213.61510317013563 L 81.44385863184557 211.24763304572957 L 79.96452218426495 209.42129105371305 L 77.66746637831406 208.3741277613357 L 74.7796567773481 208.29353120236917 L 71.56770646345196 209.30439926398736 L 68.32108640236011 211.4612393301475 L 65.33389847087801 214.74469161299047 L 62.886356431389046 219.06269464684175 L 61.22713848926264 224.25621973488876 L 60.55772030468647 230.1092140541409 L 61.01967289166336 236.36212767842406 L 62.68572354260037 242.72817458802234 L 65.55514147261847 248.91130594774768 L 69.55373814009907 254.62476634669176 L 74.53848224332634 259.6090670628696 L 80.30643943642839 263.6482470460148 L 86.60747507020872 266.5833999003203 L 93.15992181915837 268.3226169357523 L 99.66822776162786 268.8467215477157 L 105.84147604135822 268.2104346307044 L 111.41161247427564 266.538897816049 L 116.15023581568559 264.0197730083837 L 119.88289571668483 260.8914146523978 L 122.50000000000004 257.42785792574927 L 123.96364593471887 253.9215661205937 L 124.309946299838 250.66502127410456 L 123.6467041058471 247.9323147907711 L 122.14658210478562 245.96189479926448 L 120.03619629850299 244.94155430425852 L 117.58181876531329 244.99660339567617 L 115.07258817449161 246.18196871126517 L 112.80228295945095 248.47871658409952 L 111.05080243412172 251.79521834966994 L 110.06651948828825 255.97288460272011 L 110.0506137333421 260.7961081095189 L 111.1443695311358 266.00579063540465 L 113.42023704430667 271.3156037563004 L 116.87721800214547 276.429961936067 L 121.44086613847045 281.0625785630359 L 126.96790230131629 284.9544390090225 L 133.25515427759123 287.8900614041689 L 140.052259638244 289.7110234094987 L 147.07733346518796 290.32590505590883 L 154.0346165269167 289.7160229094653 L 160.63299503096815 287.93659526873296 L 166.6042283171014 285.1132651843448 L 171.7197392062855 281.43419977553043 L 175.80491203428258 277.13826227526323 L 178.7499999999989 272.5000000000023 L 180.5169565080389 267.8123915065814 L 181.14176129535733 263.3684369967165 L 180.7320952111997 259.4427487120196 L 179.46050978074265 256.274298062408 L 177.5535207621425 254.05140354839762 L 175.2773110171602 252.89990273984904 L 172.92094106479038 252.87525150717295 L 170.7781222887177 253.95904693669286 L 169.12869808310694 256.06019240492975 L 168.22099657246793 259.02063160206706 L 168.25616377704367 262.6252912103902 L 169.3754616563985 266.6156074976373 L 171.65132916956884 270.7057868940643 L 175.08276804584537 274.60077883519256 L 179.59534322264744 278.01483156368624 L 185.04579795029798 280.6894649537609 L 191.23099360685384 282.4097310515747 L 197.90061252853832 283.0177406135912 L 204.77282571703034 282.42260571173745 L 211.55194099055194 280.60617366532887 L 217.9469227069214 277.6241920055931 L 223.689619422451 273.60283126310094 L 228.55155420180284 268.7307840529237 L 232.3582226076017 263.2474368892812 L 234.999999999998 257.42785792575506 L 236.43897282563813 251.56554388372163 L 236.71126468595986 245.95401022957498 L 235.92471105402905 240.86838134372823 L 234.2520287703569 236.548137424383 L 231.91990952743618 233.18210218665047 L 229.19472266319502 230.89661461969388 L 226.36572563283073 229.7476279979947 L 223.72683712988524 229.71723257853785 L 221.558118141101 230.7148204587749 L 220.1081245708424 232.58281938572048 L 219.5782403065728 235.10663522206772 L 220.10997515810584 238.02817832935602 L 221.7760258090412 241.06212393708068 L 224.57566147449984 243.91388477981172 L 228.43472422167105 246.29816669585276 L 233.210243953028 247.95694125093132 L 238.6993780954237 248.67570608046523 L 244.65211430066668 248.29701123247412 L 250.78693801888838 246.7304015800502 L 256.8084805117038 243.95815056344196 L 262.42603843339054 240.03642496766753 L 267.3718013440312 235.0918075260468 L 271.41764186979407 229.31339582455308 L 274.38941353921535 222.9409739388277 L 276.1778579257476 216.25000000000983 L 276.74543577609654 209.53435295211167 L 276.12865291433593 203.0879225615867 L 274.43573479108875 197.18619942214988 L 271.83979580828793 192.06902169791505 L 268.56793262932854 187.9255626654991 L 264.886926794887 184.88250231783542 L 261.086455013952 182.99612622586545 L 257.4608621009982 182.24884808996669 L 254.29064184393326 182.55037445604336 L 251.82478943867795 183.74343838669506 L 250.26513436195464 185.61374179341175 L 249.75363811509 187.90348168988265 L 250.36345497732248 190.3276104353726 L 252.09431746282183 192.59180825028278 L 254.87253643801714 194.41103869747914 L 258.5556158991823 195.52752119293888 L 262.9411924535784 195.7269912393 L 267.77973780984473 194.85222666443684 L 272.7902261390442 192.81298993401919 L 277.67778187345226 189.59176179815222 L 282.15219907141744 185.24490597805752 L 285.9461687123255 179.89919168322172 L 288.8320686369394 173.74389243395458 L 290.63626116207956 167.01895762123206 L 291.25 160.00000000001373" stroke="#00f" stroke-width="2" fill="None" type="parametric curve"/>
</svg>
