<svg xmlns="http://www.w3.org/2000/svg" id="diagram" width="300" height="300">
  <defs>
    <clipPath id="clipPath-0">
      <rect x="0.0" y="0.0" width="300.0" height="300.0"/>
    </clipPath>
    <clipPath id="clipPath-1">
      <rect x="0.0" y="0.0" width="300.0" height="300.0"/>
    </clipPath>
  </defs>
  <path id="path-0" d="M 0.0 300.0 L 300.0 300.0 L 300.0 0.0 L 0.0 0.0 Z" stroke="none" stroke-width="2" fill="white"/>
  <path id="graph-0" stroke="blue" stroke-width="2" fill="none" d="M 37.5 262.5 L 39.8 260.2 L 42.0 258.0 L 44.2 255.8 L 46.5 253.5 L 48.8 251.2 L 51.0 249.0 L 53.2 246.8 L 55.5 244.5 L 57.8 242.2 L 60.0 240.0 L 62.2 237.8 L 64.5 235.5 L 66.8 233.2 L 69.0 231.0 L 71.2 228.8 L 73.5 226.5 L 75.8 224.2 L 78.0 222.0 L 80.2 219.8 L 82.5 217.5 L 84.7 215.2 L 87.0 213.0 L 89.2 210.8 L 91.5 208.5 L 93.8 206.2 L 96.0 204.0 L 98.2 201.8 L 100.5 199.5 L 102.8 197.2 L 105.0 195.0 L 107.2 192.8 L 109.5 190.5 L 111.8 188.2 L 114.0 186.0 L 116.2 183.8 L 118.5 181.5 L 120.7 179.2 L 123.0 177.0 L 125.2 174.8 L 127.5 172.5 L 129.8 170.2 L 132.0 168.0 L 134.2 165.8 L 136.5 163.5 L 138.8 161.2 L 141.0 159.0 L 143.2 156.8 L 145.5 154.5 L 147.8 152.2 L 150.0 150.0 L 152.3 147.7 L 154.5 145.5 L 156.8 143.2 L 159.0 141.0 L 161.2 138.8 L 163.5 136.5 L 165.8 134.2 L 168.0 132.0 L 170.2 129.8 L 172.5 127.5 L 174.8 125.2 L 177.0 123.0 L 179.2 120.8 L 181.5 118.5 L 183.8 116.2 L 186.0 114.0 L 188.2 111.8 L 190.5 109.5 L 192.8 107.2 L 195.0 105.0 L 197.2 102.8 L 199.5 100.5 L 201.8 98.2 L 204.0 96.0 L 206.2 93.8 L 208.5 91.5 L 210.8 89.2 L 213.0 87.0 L 215.2 84.8 L 217.5 82.5 L 219.7 80.3 L 222.0 78.0 L 224.2 75.8 L 226.5 73.5 L 228.8 71.2 L 231.0 69.0 L 233.2 66.8 L 235.5 64.5 L 237.8 62.2 L 240.0 60.0 L 242.2 57.8 L 244.5 55.5 L 246.8 53.2 L 249.0 51.0 L 251.2 48.8 L 253.5 46.5 L 255.7 44.3 L 258.0 42.0 L 260.2 39.8 L 262.5 37.5" clip-path="url(#clipPath-1)"/>
  <g id="g-0">
    <g transform="translate(42.5,267.5) translate(0.0,-0.0)">
      <g id="g-4">
        <text font-family="sans-serif" font-size="14" x="0.0" y="10.0">Born</text>
      </g>
    </g>
    <circle cx="37.5" cy="262.5" r="4" stroke="black" stroke-width="2" fill="red"/>
  </g>
  <g id="g-1">
    <g transform="translate(117.5,192.5) translate(0.0,-0.0)">
      <g id="g-5">
        <text font-family="sans-serif" font-size="14" x="0.0" y="10.6">Went to school</text>
      </g>
    </g>
    <circle cx="112.5" cy="187.5" r="4" stroke="black" stroke-width="2" fill="red"/>
  </g>
  <g id="g-2">
    <g transform="translate(182.5,107.5) translate(-136.2,-14.0)">
      <g id="g-6">
        <text font-family="sans-serif" font-size="14" x="0.0" y="10.6">Taught some classes</text>
      </g>
    </g>
    <circle cx="187.5" cy="112.5" r="4" stroke="black" stroke-width="2" fill="red"/>
  </g>
  <g id="g-3">
    <g transform="translate(257.5,32.5) translate(-116.6,-10.3)">
      <g id="g-7">
        <text font-family="sans-serif" font-size="14" x="0.0" y="10.1">Gave Last Lecture</text>
      </g>
    </g>
    <circle cx="262.5" cy="37.5" r="4" stroke="black" stroke-width="2" fill="red"/>
  </g>
</svg>
